<svg width="200" height="128" viewBox="0 0 200 128" fill="none" xmlns="http://www.w3.org/2000/svg">
<path d="M1.5 133C1.5 187.458 43.8662 231.5 96 231.5C148.134 231.5 190.5 187.458 190.5 133C190.5 78.5417 148.134 34.5 96 34.5C43.8662 34.5 1.5 78.5417 1.5 133Z" fill="#3B40A0"/>
<path d="M1.5 133C1.5 187.458 43.8662 231.5 96 231.5C148.134 231.5 190.5 187.458 190.5 133C190.5 78.5417 148.134 34.5 96 34.5C43.8662 34.5 1.5 78.5417 1.5 133Z" fill="white"/>
<path d="M1.5 133C1.5 187.458 43.8662 231.5 96 231.5C148.134 231.5 190.5 187.458 190.5 133C190.5 78.5417 148.134 34.5 96 34.5C43.8662 34.5 1.5 78.5417 1.5 133Z" stroke="#3B40A0" stroke-width="3"/>
<ellipse rx="96" ry="100" transform="matrix(-1 0 0 1 192 100)" fill="#3B40A0"/>
<ellipse rx="96" ry="100" transform="matrix(-1 0 0 1 192 100)" fill="#3B40A0"/>
</svg>
